<svg width="250" height="150" fill="none" xmlns="http://www.w3.org/2000/svg">
  <rect width="250" height="150" rx="1" fill="#F95858"/>
  <path d="M0 1a1 1 0 0 1 1-1h248a1 1 0 0 1 1 1v49H0V1z" fill="#fff"/>
  <path d="M44.295 40H40.99L31.06 20.875 31.006 40h-3.287V14.406h3.304l9.932 19.09.053-19.09h3.287V40zm17.93-2.62a6.853 6.853 0 0 1-2.373 2.198c-.95.516-2.045.774-3.287.774-.997 0-1.899-.153-2.708-.457a5.27 5.27 0 0 1-2.074-1.46c-.574-.656-1.02-1.488-1.336-2.495-.304-1.02-.457-2.239-.457-3.657V20.98h3.252v11.338c0 1.032.082 1.887.246 2.567.164.68.41 1.224.739 1.635.328.398.726.68 1.195.843.48.164 1.031.246 1.652.246 1.324 0 2.39-.27 3.2-.808a4.887 4.887 0 0 0 1.828-2.18v-13.64h3.27V40h-2.954l-.193-2.62zm17.138-9.35l5.08-7.05h3.815l-7.084 9.405L88.45 40H84.69l-5.256-7.242L74.178 40H70.38l7.277-9.615-7.084-9.405h3.762l5.027 7.05zm21.463-11.655v4.605h7.242v2.514h-7.242V33.83c0 .738.094 1.348.281 1.828.188.48.446.867.774 1.16.328.282.703.48 1.125.598.433.117.89.176 1.371.176.352 0 .715-.018 1.09-.053a34.359 34.359 0 0 0 2.092-.334c.316-.07.574-.129.773-.176l.457 2.303c-.269.164-.598.31-.984.44a11.2 11.2 0 0 1-1.266.298c-.457.094-.943.164-1.459.211a16.31 16.31 0 0 1-1.512.07 7.806 7.806 0 0 1-2.373-.351 5.06 5.06 0 0 1-1.898-1.143c-.54-.527-.967-1.2-1.283-2.021-.305-.832-.457-1.834-.457-3.006V23.494h-4.993V20.98h4.993v-4.605h3.269zm29.707 26.28h-16.119V40h16.119v2.654zm13.94-4.94c.586 0 1.154-.094 1.705-.281a5.167 5.167 0 0 0 1.494-.774 4.12 4.12 0 0 0 1.037-1.178c.27-.457.41-.949.422-1.476h3.076a5.038 5.038 0 0 1-.668 2.426 6.971 6.971 0 0 1-1.705 2.021 8.997 8.997 0 0 1-2.461 1.389c-.926.34-1.893.51-2.9.51-1.442 0-2.702-.258-3.78-.774a7.961 7.961 0 0 1-2.707-2.074 9.15 9.15 0 0 1-1.617-3.023 11.944 11.944 0 0 1-.545-3.622v-.738c0-1.254.182-2.455.545-3.603.363-1.149.902-2.157 1.617-3.024a7.864 7.864 0 0 1 2.707-2.092c1.078-.515 2.338-.773 3.78-.773 1.125 0 2.156.181 3.093.545.95.351 1.764.838 2.444 1.459a6.47 6.47 0 0 1 2.197 4.887h-3.076a3.824 3.824 0 0 0-.387-1.618 4.254 4.254 0 0 0-.967-1.353 4.488 4.488 0 0 0-1.476-.914 4.924 4.924 0 0 0-1.828-.334c-1.008 0-1.858.205-2.549.615a4.855 4.855 0 0 0-1.653 1.582 6.741 6.741 0 0 0-.914 2.18 11.52 11.52 0 0 0-.263 2.443v.738c0 .832.088 1.659.263 2.479.188.809.487 1.54.897 2.197a5.09 5.09 0 0 0 1.652 1.582c.692.399 1.547.598 2.567.598zM158.5 13h9.721v24.188h6.205V40H158.5v-2.813h6.469V15.83H158.5V13zm33.451 24.38a6.856 6.856 0 0 1-2.373 2.198c-.949.516-2.045.774-3.287.774-.996 0-1.898-.153-2.707-.457a5.265 5.265 0 0 1-2.074-1.46c-.574-.656-1.02-1.488-1.336-2.495-.305-1.02-.457-2.239-.457-3.657V20.98h3.252v11.338c0 1.032.082 1.887.246 2.567.164.68.41 1.224.738 1.635.328.398.727.68 1.195.843.481.164 1.032.246 1.653.246 1.324 0 2.39-.27 3.199-.808a4.886 4.886 0 0 0 1.828-2.18v-13.64h3.27V40h-2.953l-.194-2.62zm25.401-6.679c0 1.36-.164 2.631-.493 3.815-.328 1.172-.808 2.191-1.441 3.058a6.789 6.789 0 0 1-2.356 2.04c-.925.492-1.992.738-3.199.738-1.218 0-2.279-.217-3.181-.65a6.475 6.475 0 0 1-2.286-1.864L204.238 40h-2.988V13h3.252v10.02a6.237 6.237 0 0 1 2.25-1.776c.879-.41 1.904-.615 3.076-.615 1.219 0 2.297.24 3.234.72a6.69 6.69 0 0 1 2.356 2.005c.633.855 1.113 1.88 1.441 3.076.329 1.183.493 2.484.493 3.902v.37zm-3.252-.369c0-.926-.094-1.805-.282-2.637-.175-.843-.463-1.582-.861-2.215a4.441 4.441 0 0 0-1.564-1.529c-.645-.375-1.436-.562-2.373-.562-.563 0-1.079.076-1.547.228-.469.14-.891.346-1.266.615a4.93 4.93 0 0 0-.984.932 5.796 5.796 0 0 0-.721 1.16v8.315c.211.421.457.814.738 1.177.293.352.627.662 1.002.932s.797.48 1.266.633c.469.14.984.21 1.547.21.89 0 1.652-.18 2.285-.544a4.493 4.493 0 0 0 1.564-1.512c.41-.633.709-1.365.897-2.197.199-.832.299-1.711.299-2.637v-.369z" fill="#F95858"/>
  <rect x="58" y="87" width="180" height="15" rx="1" fill="#fff"/>
  <rect x="12" y="87" width="36" height="15" rx="1" fill="#FDFDFD"/>
  <rect x="12" y="116" width="36" height="15" rx="1" fill="#FDFDFD"/>
  <rect x="58" y="116" width="36" height="15" rx="1" fill="#FDFDFD"/>
  <rect x="108" y="116" width="36" height="15" rx="1" fill="#FDFDFD"/>
  <rect x="104.582" y="114" width="1" height="22" rx=".5" transform="rotate(22.96 104.582 114)" fill="#fff"/>
</svg>
